<?xml version="1.0" encoding="UTF-8"?>
<svg id="_레이어_2" data-name="레이어 2" xmlns="http://www.w3.org/2000/svg" viewBox="0 0 397.6 381.04">
  <defs>
    <style>
      .cls-1 {
        stroke-width: 15px;
      }

      .cls-1, .cls-2 {
        fill: none;
      }

      .cls-1, .cls-2, .cls-3 {
        stroke: #231815;
        stroke-miterlimit: 10;
      }

      .cls-2, .cls-3 {
        stroke-width: 2px;
      }

      .cls-3 {
        fill: #231815;
      }
    </style>
  </defs>
  <g id="_레이어_1-2" data-name=" 레이어 1">
    <path class="cls-2" d="M342.9,1H54.6C25,1,1,28.1,1,61.5v133.8h0v174.9c0,7.6,7.3,12.3,13.1,8.5l122.1-79.4h206.8c29.6,0,53.6-27.1,53.6-60.5V61.5c0-33.4-24-60.5-53.6-60.5h-.1Z"/>
    <rect class="cls-1" x="136.7" y="88" width="124.2" height="124.2" rx="25.7" ry="25.7"/>
    <g>
      <g>
        <path class="cls-3" d="M91.3,144h43.2c7.5-.1,7.5,12.3,0,12.2h-43.2c-7.6-.1-7.6-12.1,0-12.2Z"/>
        <path class="cls-3" d="M91.3,114.9h43.2c7.5-.1,7.5,12.3,0,12.2h-43.2c-7.6-.1-7.6-12.1,0-12.2Z"/>
        <path class="cls-3" d="M91.3,172.5h43.2c7.5-.1,7.5,12.3,0,12.2h-43.2c-7.6-.1-7.6-12.1,0-12.2Z"/>
      </g>
      <g>
        <path class="cls-3" d="M261.8,144.3h43.2c7.5-.1,7.5,12.3,0,12.2h-43.2c-7.6-.1-7.6-12.1,0-12.2Z"/>
        <path class="cls-3" d="M261.8,115.2h43.2c7.5-.1,7.5,12.3,0,12.2h-43.2c-7.6-.1-7.6-12.1,0-12.2Z"/>
        <path class="cls-3" d="M261.8,172.8h43.2c7.5-.1,7.5,12.3,0,12.2h-43.2c-7.6-.1-7.6-12.1,0-12.2Z"/>
      </g>
    </g>
    <g>
      <g>
        <path class="cls-3" d="M192.8,256.9v-43.2c-.1-7.5,12.3-7.5,12.2,0v43.2c-.1,7.6-12.1,7.6-12.2,0Z"/>
        <path class="cls-3" d="M163.7,256.9v-43.2c-.1-7.5,12.3-7.5,12.2,0v43.2c-.1,7.6-12.1,7.6-12.2,0Z"/>
        <path class="cls-3" d="M221.3,256.9v-43.2c-.1-7.5,12.3-7.5,12.2,0v43.2c-.1,7.6-12.1,7.6-12.2,0Z"/>
      </g>
      <g>
        <path class="cls-3" d="M193.1,86.4v-43.2c-.1-7.5,12.3-7.5,12.2,0v43.2c-.1,7.6-12.1,7.6-12.2,0Z"/>
        <path class="cls-3" d="M164.1,86.4v-43.2c-.1-7.5,12.3-7.5,12.2,0v43.2c-.1,7.6-12.1,7.6-12.2,0Z"/>
        <path class="cls-3" d="M221.6,86.4v-43.2c-.1-7.5,12.3-7.5,12.2,0v43.2c-.1,7.6-12.1,7.6-12.2,0Z"/>
      </g>
    </g>
  </g>
</svg>