<?xml version="1.0" encoding="UTF-8"?>
<svg id="_레이어_2" data-name="레이어 2" xmlns="http://www.w3.org/2000/svg" viewBox="0 0 397.57 381.01">
  <defs>
    <style>
      .cls-1 {
        stroke-width: 15px;
      }

      .cls-1, .cls-2 {
        fill: #fff;
      }

      .cls-1, .cls-2, .cls-3 {
        stroke: #231815;
        stroke-miterlimit: 10;
      }

      .cls-2, .cls-3 {
        stroke-width: 2px;
      }

      .cls-3 {
        fill: #231815;
      }
    </style>
  </defs>
  <g id="_레이어_1-2" data-name="레이어 1">
    <path class="cls-2" d="M342.93,1H54.64C25.02,1,1,28.07,1,61.46v133.78s0,.03,0,.04v174.89c0,7.56,7.26,12.29,13.07,8.51l122.08-79.44h206.78c29.62,0,53.64-27.07,53.64-60.46V61.46c0-33.39-24.01-60.46-53.64-60.46Z"/>
    <rect class="cls-1" x="136.69" y="88.03" width="124.18" height="124.18" rx="25.7" ry="25.7"/>
    <g>
      <g>
        <path class="cls-3" d="M91.35,144.01h43.16c7.5-.11,7.52,12.33,0,12.22,0,0-43.16,0-43.16,0-7.61-.14-7.62-12.07,0-12.22Z"/>
        <path class="cls-3" d="M91.35,114.91h43.16c7.5-.11,7.52,12.33,0,12.22,0,0-43.16,0-43.16,0-7.61-.14-7.62-12.07,0-12.22Z"/>
        <path class="cls-3" d="M91.35,172.48h43.16c7.5-.11,7.52,12.33,0,12.22,0,0-43.16,0-43.16,0-7.61-.14-7.62-12.07,0-12.22Z"/>
      </g>
      <g>
        <path class="cls-3" d="M261.77,144.32h43.16c7.5-.11,7.52,12.33,0,12.22,0,0-43.16,0-43.16,0-7.61-.14-7.62-12.07,0-12.22Z"/>
        <path class="cls-3" d="M261.77,115.23h43.16c7.5-.11,7.52,12.33,0,12.22,0,0-43.16,0-43.16,0-7.61-.14-7.62-12.07,0-12.22Z"/>
        <path class="cls-3" d="M261.77,172.79h43.16c7.5-.11,7.52,12.33,0,12.22,0,0-43.16,0-43.16,0-7.61-.14-7.62-12.07,0-12.22Z"/>
      </g>
    </g>
    <g>
      <g>
        <path class="cls-3" d="M192.83,256.87v-43.16c-.11-7.5,12.33-7.52,12.22,0,0,0,0,43.16,0,43.16-.14,7.61-12.07,7.62-12.22,0Z"/>
        <path class="cls-3" d="M163.74,256.87v-43.16c-.11-7.5,12.33-7.52,12.22,0,0,0,0,43.16,0,43.16-.14,7.61-12.07,7.62-12.22,0Z"/>
        <path class="cls-3" d="M221.3,256.87v-43.16c-.11-7.5,12.33-7.52,12.22,0,0,0,0,43.16,0,43.16-.14,7.61-12.07,7.62-12.22,0Z"/>
      </g>
      <g>
        <path class="cls-3" d="M193.14,86.45v-43.16c-.11-7.5,12.33-7.52,12.22,0,0,0,0,43.16,0,43.16-.14,7.61-12.07,7.62-12.22,0Z"/>
        <path class="cls-3" d="M164.05,86.45v-43.16c-.11-7.5,12.33-7.52,12.22,0,0,0,0,43.16,0,43.16-.14,7.61-12.07,7.62-12.22,0Z"/>
        <path class="cls-3" d="M221.61,86.45v-43.16c-.11-7.5,12.33-7.52,12.22,0,0,0,0,43.16,0,43.16-.14,7.61-12.07,7.62-12.22,0Z"/>
      </g>
    </g>
  </g>
</svg>