<?xml version="1.0" encoding="UTF-8"?>
<svg id="_레이어_1" xmlns="http://www.w3.org/2000/svg" version="1.1" viewBox="0 0 1579.1 381">
  <!-- Generator: Adobe Illustrator 29.4.0, SVG Export Plug-In . SVG Version: 2.1.0 Build 152)  -->
  <defs>
    <style>
      .st0, .st1, .st2, .st3 {
        stroke: #fff;
        stroke-miterlimit: 10;
      }

      .st0, .st3 {
        fill: #fff;
      }

      .st1 {
        stroke-width: 15px;
      }

      .st1, .st2 {
        fill: none;
      }

      .st2 {
        stroke-width: 4px;
      }

      .st3 {
        stroke-width: 2px;
      }
    </style>
  </defs>
  <path class="st2" d="M342.9,1H54.6C25,1,1,28.1,1,61.5v133.8h0v174.9c0,7.6,7.3,12.3,13.1,8.5l122.1-79.4h206.8c29.6,0,53.6-27.1,53.6-60.5V61.5c0-33.4-24-60.5-53.6-60.5Z"/>
  <rect class="st1" x="136.7" y="88" width="124.2" height="124.2" rx="25.7" ry="25.7"/>
  <g>
    <g>
      <path class="st3" d="M91.3,144h43.2c7.5-.1,7.5,12.3,0,12.2h-43.2c-7.6-.1-7.6-12.1,0-12.2Z"/>
      <path class="st3" d="M91.3,114.9h43.2c7.5-.1,7.5,12.3,0,12.2h-43.2c-7.6-.1-7.6-12.1,0-12.2Z"/>
      <path class="st3" d="M91.3,172.5h43.2c7.5-.1,7.5,12.3,0,12.2h-43.2c-7.6-.1-7.6-12.1,0-12.2Z"/>
    </g>
    <g>
      <path class="st3" d="M261.8,144.3h43.2c7.5-.1,7.5,12.3,0,12.2h-43.2c-7.6-.1-7.6-12.1,0-12.2Z"/>
      <path class="st3" d="M261.8,115.2h43.2c7.5-.1,7.5,12.3,0,12.2h-43.2c-7.6-.1-7.6-12.1,0-12.2Z"/>
      <path class="st3" d="M261.8,172.8h43.2c7.5-.1,7.5,12.3,0,12.2h-43.2c-7.6-.1-7.6-12.1,0-12.2Z"/>
    </g>
  </g>
  <g>
    <g>
      <path class="st3" d="M192.8,256.9v-43.2c-.1-7.5,12.3-7.5,12.2,0v43.2c-.1,7.6-12.1,7.6-12.2,0Z"/>
      <path class="st3" d="M163.7,256.9v-43.2c-.1-7.5,12.3-7.5,12.2,0v43.2c-.1,7.6-12.1,7.6-12.2,0Z"/>
      <path class="st3" d="M221.3,256.9v-43.2c-.1-7.5,12.3-7.5,12.2,0v43.2c-.1,7.6-12.1,7.6-12.2,0Z"/>
    </g>
    <g>
      <path class="st3" d="M193.1,86.4v-43.2c-.1-7.5,12.3-7.5,12.2,0v43.2c-.1,7.6-12.1,7.6-12.2,0Z"/>
      <path class="st3" d="M164.1,86.4v-43.2c-.1-7.5,12.3-7.5,12.2,0v43.2c-.1,7.6-12.1,7.6-12.2,0Z"/>
      <path class="st3" d="M221.6,86.4v-43.2c-.1-7.5,12.3-7.5,12.2,0v43.2c-.1,7.6-12.1,7.6-12.2,0Z"/>
    </g>
  </g>
  <g>
    <path class="st0" d="M526.6,148.1h67.6v2.6c0,11.6-1.6,22.3-4.7,32.2s-7.8,18.3-13.9,25.4c-6.1,7.1-13.6,12.6-22.5,16.6s-19.1,6-30.7,6-20.1-1.9-29-5.7-16.7-9.1-23.2-16-11.7-15.1-15.4-24.8c-3.7-9.7-5.6-20.4-5.6-32.1s1.9-22.4,5.6-32c3.7-9.6,8.9-17.9,15.4-24.8s14.3-12.3,23.2-16.1c8.9-3.8,18.6-5.7,29-5.7s24.3,2.7,34.6,8.2c10.3,5.5,18.7,13.2,25.4,23.2l-7.4,4.6c-5.7-9.6-13.1-16.7-22.2-21.2-9.1-4.5-19.2-6.8-30.4-6.8s-17.3,1.7-25.1,5c-7.8,3.3-14.6,8.1-20.3,14.3-5.7,6.2-10.3,13.6-13.6,22.3-3.3,8.7-5,18.3-5,29s1.7,20.3,5,29,7.9,16.1,13.6,22.3,12.5,11,20.3,14.3,16.2,5,25.1,5,18.7-1.7,26.4-5c7.7-3.3,14.2-8,19.5-13.9s9.3-13,12.2-21.2,4.4-17.1,4.5-26.7h-58.4v-8h0Z"/>
    <path class="st0" d="M616,176.3c.4,6.5,1.8,12.6,4.1,18.2,2.3,5.6,5.4,10.4,9.3,14.5s8.4,7.3,13.7,9.6,11.1,3.5,17.5,3.5,16.4-2,23.1-6.1,12.3-9.5,16.7-16.3l6.2,4.6c-5.2,7.6-11.7,13.8-19.4,18.5-7.7,4.7-16.6,7.1-26.6,7.1s-15.1-1.4-21.7-4.3c-6.6-2.9-12.3-6.9-17.1-12s-8.6-11.2-11.3-18.2-4.1-14.7-4.1-23.1,1.4-16.1,4.2-23.1,6.6-13.1,11.3-18.2c4.7-5.1,10.3-9.1,16.6-12,6.3-2.9,13-4.3,20.1-4.3s14.2,1.4,20.5,4.3,11.8,6.8,16.4,11.8c4.6,5,8.2,10.9,10.9,17.6,2.7,6.7,4,14,4,21.9v6h-94.4ZM701.4,168.5c-.4-6.8-1.7-13-3.9-18.6s-5.2-10.4-8.9-14.5c-3.7-4.1-8.1-7.2-13.2-9.5-5.1-2.3-10.7-3.4-16.8-3.4s-10.7,1.1-15.6,3.3c-4.9,2.2-9.3,5.3-13.2,9.4s-7.1,8.9-9.6,14.6c-2.5,5.7-4.1,11.9-4.8,18.7h86Z"/>
    <path class="st0" d="M722.4,125.5v-7.8h24.4v-29.8h9v29.8h34.8v7.8h-34.8v68.8c0,9.6,1.9,16.7,5.8,21.2s10.6,6.8,20.2,6.8,5.7-.2,8.8-.6v7.4c-3.6.4-6.9.6-10,.6-6.4,0-11.8-.9-16.1-2.6-4.3-1.7-7.8-4.1-10.4-7.2-2.6-3.1-4.5-6.8-5.6-11.2s-1.7-9.2-1.7-14.4v-68.8s-24.4,0-24.4,0Z"/>
    <path class="st0" d="M942,190.7c-6,12.9-14.8,23.1-26.3,30.4-11.5,7.3-25,11-40.3,11s-20.6-1.9-29.7-5.8c-9.1-3.9-17-9.3-23.7-16.3s-11.9-15.4-15.8-25.2-5.8-20.6-5.8-32.5,1.9-22.7,5.8-32.5,9.1-18.2,15.8-25.2,14.6-12.4,23.7-16.3,19-5.8,29.7-5.8,28,3.5,39.2,10.4,20,16.5,26.4,28.6l-20.4,13c-4.3-8.9-10.4-16.1-18.3-21.5s-16.9-8.1-26.9-8.1-13.1,1.4-19,4.1c-5.9,2.7-11,6.6-15.4,11.6s-7.9,11-10.4,18.1c-2.5,7.1-3.8,14.9-3.8,23.6s1.3,16.5,3.8,23.6c2.5,7.1,6,13.1,10.4,18.1s9.5,8.9,15.4,11.6c5.9,2.7,12.2,4.1,19,4.1,10.7,0,19.9-3,27.7-9s13.9-13.9,18.3-23.8l20.6,13.8h0Z"/>
    <path class="st0" d="M1070.8,116.3v112h-25.6v-10.6c-3.6,4.3-8.4,7.6-14.3,10s-11.9,3.6-17.9,3.6-16.1-1.4-23.1-4.3c-7-2.9-13.1-6.9-18.2-12s-9.1-11.3-12-18.6-4.3-15.3-4.3-24.1,1.4-16.8,4.3-24.1,6.9-13.5,12-18.6c5.1-5.1,11.2-9.1,18.2-12s14.7-4.3,23.1-4.3,11.9,1.1,17.6,3.2,10.6,5.1,14.6,9v-9.2h25.6ZM1044.9,172.3c0-5.9-.8-11.1-2.4-15.8s-3.8-8.6-6.7-11.8-6.3-5.6-10.2-7.3c-3.9-1.7-8.2-2.5-12.7-2.5s-8.8.9-12.7,2.7-7.3,4.4-10.2,7.7-5.1,7.3-6.7,11.8c-1.6,4.5-2.4,9.6-2.4,15.2s.8,10.7,2.4,15.2c1.6,4.5,3.8,8.5,6.7,11.8s6.3,5.9,10.2,7.7,8.2,2.7,12.7,2.7,8.8-.8,12.7-2.5c3.9-1.7,7.3-4.1,10.2-7.3s5.1-7.1,6.7-11.8,2.4-9.9,2.4-15.8h0Z"/>
    <path class="st0" d="M1122.3,116.3v9.2c4-3.9,8.9-6.9,14.6-9s11.6-3.2,17.6-3.2,16.1,1.4,23.1,4.3,13.1,6.9,18.2,12c5.1,5.1,9.1,11.3,12,18.6s4.3,15.3,4.3,24.1-1.4,16.8-4.3,24.1-6.9,13.5-12,18.6-11.2,9.1-18.2,12-14.7,4.3-23.1,4.3-12-1.2-17.9-3.6c-5.9-2.4-10.7-5.7-14.3-10v50.6h-25.6V116.3h25.6ZM1122.6,172.3c0,5.9.8,11.1,2.4,15.8s3.8,8.6,6.7,11.8,6.3,5.6,10.2,7.3c3.9,1.7,8.2,2.5,12.7,2.5s8.8-.9,12.7-2.7c3.9-1.8,7.3-4.4,10.2-7.7s5.1-7.3,6.7-11.8,2.4-9.6,2.4-15.2-.8-10.7-2.4-15.2-3.8-8.5-6.7-11.8-6.3-5.9-10.2-7.7c-3.9-1.8-8.2-2.7-12.7-2.7s-8.8.8-12.7,2.5c-3.9,1.7-7.3,4.1-10.2,7.3s-5.1,7.1-6.7,11.8-2.4,9.9-2.4,15.8h0Z"/>
    <path class="st0" d="M1292.8,230.1c-3.2.7-6.1,1-8.7,1.1s-4.8.1-6.7.1c-7.1,0-13.1-.9-18-2.7s-9-4.4-12.1-7.9-5.4-7.7-6.8-12.6c-1.4-4.9-2.1-10.5-2.1-16.8v-53.4h-19.4v-21.6h19.4v-29.8h25.6v29.8h28.8v21.6h-28.8v53.4c0,5.7,1.2,10.2,3.5,13.5s6,4.9,11.1,4.9,3.9,0,6.6-.2c2.7-.1,5.2-.5,7.6-1v21.6h0Z"/>
    <path class="st0" d="M1301.2,75.9h28v28h-28v-28ZM1327.9,116.3h-25.6v112h25.6v-112Z"/>
    <path class="st0" d="M1400.6,113.3c8,0,15.4,1.4,22.2,4.3,6.8,2.9,12.7,6.9,17.7,12,5,5.1,8.9,11.3,11.8,18.6s4.3,15.3,4.3,24.1-1.4,16.8-4.3,24.1-6.8,13.5-11.8,18.6-10.9,9.1-17.7,12c-6.8,2.9-14.2,4.3-22.2,4.3s-15.4-1.4-22.3-4.3c-6.9-2.9-12.8-6.9-17.8-12s-8.9-11.3-11.7-18.6c-2.8-7.3-4.2-15.3-4.2-24.1s1.4-16.8,4.2-24.1c2.8-7.3,6.7-13.5,11.7-18.6,5-5.1,10.9-9.1,17.8-12s14.3-4.3,22.3-4.3ZM1400.6,209.7c4.3,0,8.2-.9,11.9-2.7s6.9-4.4,9.6-7.7,4.9-7.3,6.5-11.8,2.4-9.6,2.4-15.2-.8-10.7-2.4-15.2-3.8-8.5-6.5-11.8-5.9-5.9-9.6-7.7c-3.7-1.8-7.6-2.7-11.9-2.7s-8.2.9-11.9,2.7-6.9,4.4-9.6,7.7-4.9,7.3-6.5,11.8-2.4,9.6-2.4,15.2.8,10.7,2.4,15.2,3.8,8.5,6.5,11.8,5.9,5.9,9.6,7.7c3.7,1.8,7.6,2.7,11.9,2.7Z"/>
    <path class="st0" d="M1502.2,116.3v9.4c3.9-3.7,8.6-6.7,14.1-9s10.8-3.4,15.9-3.4c10.1,0,18.5,2.1,25.2,6.3,6.7,4.2,11.9,9.8,15.8,16.9,2.1,4,3.6,8.5,4.3,13.4.7,4.9,1.1,10.2,1.1,15.8v62.6h-25.8v-62.6c0-3.6-.3-7-.8-10.1-.5-3.1-1.2-5.7-2-7.7-1.5-3.9-3.7-6.9-6.8-9.2-3.1-2.3-6.7-3.4-11-3.4s-6.5.7-9.6,2-5.9,3.1-8.4,5.3-4.7,4.8-6.4,7.8-3,6.2-3.8,9.5c-.5,2.1-1,5-1.3,8.6-.3,3.6-.5,8.1-.5,13.6v46.2h-25.6v-112h25.6Z"/>
  </g>
</svg>